<svg id="Systematic_Logo" data-name="Systematic Logo" xmlns="http://www.w3.org/2000/svg" viewBox="0 0 471.38 60"><defs><style>.cls-1{fill:#fff;}</style></defs><path class="cls-1" d="M90,50.11H67.47c-3.32,0-11.57.71-14.45,9.37C50,68.66,51,73.76,51,74.57s.45,5.2,7.15,7.69c1.43.54,6.55,2.41,7.91,2.9,3.53,1.28,7.4,3.35,5.77,9.21-1.46,5.26-3,5.63-7.89,5.63H46l-1.73,10H74.36c2.24,0,10.43-.86,13.15-11.12,2.49-9.4,1.85-13.77,1.72-14.52s-.34-5.12-7.14-7.7c-1.9-.72-8.92-3.24-10-3.63-1.36-.48-5.43-2.37-3.81-8.24,1.08-4,2.62-4.65,6.32-4.78H88.38Z" transform="translate(-44.31 -50)"/><path class="cls-1" d="M178.16,50.11H155.69c-3.33,0-11.58.71-14.46,9.37-3.07,9.18-2.07,14.28-2.07,15.09s.46,5.2,7.15,7.69c1.43.54,6.55,2.41,7.91,2.9,3.54,1.28,7.41,3.35,5.78,9.21-1.46,5.26-3,5.63-7.9,5.63H134.25l-1.72,10h30.05c2.23,0,10.42-.86,13.15-11.12,2.49-9.4,1.85-13.77,1.72-14.52s-.34-5.12-7.15-7.7c-1.9-.72-8.91-3.24-10-3.63-1.36-.48-5.43-2.37-3.81-8.24,1.09-4,2.63-4.65,6.32-4.78h13.8Z" transform="translate(-44.31 -50)"/><path class="cls-1" d="M515.69,50.11H491.77s-8.29.53-13.32,5.61c0,0-5.83,4.91-8.72,22.21,0,0-2.36,10.78-1.85,18.46C468.59,107,478,110,483.6,110h26.22l1.73-10H492.6c-2.06-.08-7.93-1-7.48-8.8a75,75,0,0,1,5.43-25.37c2.1-5.55,8.75-5.82,8.75-5.82h14.79Z" transform="translate(-44.31 -50)"/><polygon class="cls-1" points="422.56 0.11 406.12 0.11 396.03 60 412.49 60 422.56 0.11"/><polygon class="cls-1" points="75.91 37.7 72.33 60 55.78 60 59.78 35.03 48.24 0 64.37 0 71.11 20.45 83.08 0 98.84 0 75.91 37.7"/><polygon class="cls-1" points="182.62 10.02 168.43 10.02 159.9 60 143.37 60 151.9 10.02 135.96 10.02 137.52 0 184.18 0 182.62 10.02"/><polygon class="cls-1" points="398.65 10.02 384.46 10.02 375.93 60 359.4 60 367.94 10.02 352 10.02 353.56 0 400.21 0 398.65 10.02"/><polygon class="cls-1" points="227.39 10.06 202.57 10.06 200.52 22.7 218.87 22.7 217.29 32.67 198.93 32.67 196.12 49.94 220.94 49.94 219.35 60 177.92 60 187.54 0 228.98 0 227.39 10.06"/><path class="cls-1" d="M323.77,50.11,307.14,88.05l-4.76-37.94H277.83L268.22,110h15.35L290,70.83,294.89,110H309l17.81-40.63-.44,2.7c0,.05,0,.09,0,.13L320.29,110h15.25l9.61-59.89Z" transform="translate(-44.31 -50)"/><path class="cls-1" d="M388.57,50.11H366.49L338.12,110h15.16l7-14.81h20.2L383,110H398.7ZM364.31,86.73l10.88-23,3.83,23Z" transform="translate(-44.31 -50)"/></svg>