<svg xmlns="http://www.w3.org/2000/svg" width="16" height="16" viewBox="0 0 16 16"><defs><linearGradient id="PwkyNvHKvd"><stop offset="0%" style="stop-color:#064595"></stop></linearGradient><linearGradient id="rICvdMRMwF"><stop offset="0%" style="stop-color:#ffffff"></stop></linearGradient></defs><g fill="none" fill-rule="evenodd"><path d="M0 1.777C0 .796.796 0 1.777 0h12.446C15.204 0 16 .796 16 1.777v12.446c0 .981-.796 1.777-1.777 1.777H1.777A1.778 1.778 0 0 1 0 14.223V1.777z" stroke-linecap="round" stroke-linejoin="round" fill="#2684FF" style="fill: url(&quot;#rICvdMRMwF&quot;);"></path><path d="M6.5 10.086l5.793-5.793a1 1 0 0 1 1.414 1.414l-6.5 6.5a1 1 0 0 1-1.414 0l-3.5-3.5a1 1 0 0 1 1.414-1.414L6.5 10.086z" fill="#FFF" fill-rule="nonzero" style="fill: url(&quot;#PwkyNvHKvd&quot;);"></path></g></svg>
